<svg viewBox="0 0 24 24" fill="none" xmlns="http://www.w3.org/2000/svg">
<g clip-path="url(#clip0_83_66)">
<path fill-rule="evenodd" clip-rule="evenodd" d="M8.44548 1.06028C9.56673 0.696182 10.7619 0.5 12 0.5C13.2381 0.5 14.4333 0.696182 15.5545 1.06028L14.628 3.91361C13.8023 3.6455 12.9196 3.5 12 3.5C11.0804 3.5 10.1977 3.6455 9.37202 3.91361L8.44548 1.06028ZM1.75209 6.77704C2.85442 4.61793 4.61793 2.85442 6.77704 1.75209L8.14118 4.42401C6.54484 5.23901 5.23901 6.54484 4.42401 8.14117L1.75209 6.77704ZM17.223 1.75209C19.3821 2.85442 21.1456 4.61793 22.2479 6.77704L19.576 8.14118C18.761 6.54484 17.4552 5.23901 15.8588 4.42401L17.223 1.75209ZM22.9397 8.44548C23.3038 9.56673 23.5 10.7619 23.5 12C23.5 13.2381 23.3038 14.4333 22.9397 15.5545L20.0864 14.628C20.3545 13.8023 20.5 12.9196 20.5 12C20.5 11.0804 20.3545 10.1977 20.0864 9.37202L22.9397 8.44548ZM0.5 12C0.5 10.7619 0.696182 9.56673 1.06028 8.44548L3.91361 9.37202C3.6455 10.1977 3.5 11.0804 3.5 12C3.5 12.9196 3.6455 13.8023 3.91361 14.628L1.06028 15.5545C0.696182 14.4333 0.5 13.2381 0.5 12ZM6.77704 22.2479C4.61793 21.1456 2.85442 19.3821 1.75209 17.223L4.42401 15.8588C5.23901 17.4552 6.54484 18.761 8.14117 19.576L6.77704 22.2479ZM22.2479 17.223C21.1456 19.3821 19.3821 21.1456 17.223 22.2479L15.8588 19.576C17.4552 18.761 18.761 17.4552 19.576 15.8588L22.2479 17.223ZM12 23.5C10.7619 23.5 9.56673 23.3038 8.44548 22.9397L9.37202 20.0864C10.1977 20.3545 11.0804 20.5 12 20.5C12.9196 20.5 13.8023 20.3545 14.628 20.0864L15.5545 22.9397C14.4333 23.3038 13.2381 23.5 12 23.5Z" fill="black"/>
</g>
<defs>
<clipPath id="clip0_83_66">
<rect width="24" height="24" fill="white"/>
</clipPath>
</defs>
</svg>
