<svg id="Layer_1" data-name="Layer 1" xmlns="http://www.w3.org/2000/svg" xmlns:xlink="http://www.w3.org/1999/xlink" viewBox="0 0 40 40"><defs><clipPath id="clip-path"><path d="M40,0V40H0V0Z" fill="none"/></clipPath></defs><g clip-path="url(#clip-path)"><path d="M24.83,19.06a.22.22,0,0,0,0-.34l-1.18-1.27c-.1-.1-.22-.12-.31,0l-2.28,2.09V11.23a.21.21,0,0,0-.23-.23h-1.7a.21.21,0,0,0-.23.23v8.29l-2.28-2.09a.2.2,0,0,0-.31,0l-1.18,1.27a.22.22,0,0,0,0,.34l4.66,4a.27.27,0,0,0,.34,0ZM29,28.77v-1.7a.21.21,0,0,0-.23-.23H11.23a.21.21,0,0,0-.23.23v1.7a.21.21,0,0,0,.23.23H28.77a.21.21,0,0,0,.23-.23"/></g></svg>