<svg viewBox="0 0 30 30" fill="none" xmlns="http://www.w3.org/2000/svg">
<path fill-rule="evenodd" clip-rule="evenodd" d="M7.42428 15.4807C7.42405 15.4804 7.42384 15.4801 8 15C8.57617 14.5199 8.57597 14.5196 8.57578 14.5194L8.57495 14.5184C8.5747 14.5181 8.57491 14.5184 8.57495 14.5184L8.57664 14.5204L8.59128 14.5372C8.60574 14.5535 8.62954 14.58 8.66255 14.6151C8.72862 14.6853 8.83134 14.79 8.96965 14.9177C9.24668 15.1734 9.66393 15.5191 10.213 15.8659C11.3103 16.5589 12.9232 17.25 15 17.25C17.0768 17.25 18.6897 16.5589 19.787 15.8659C20.3361 15.5191 20.7533 15.1734 21.0304 14.9177C21.1687 14.79 21.2714 14.6853 21.3375 14.6151C21.3705 14.58 21.3943 14.5535 21.4087 14.5372L21.4242 14.5194C21.424 14.5196 21.4238 14.5199 22 15C22.5762 15.4801 22.576 15.4804 22.5757 15.4807L22.574 15.4827L22.571 15.4863L22.562 15.4968C22.5548 15.5052 22.5451 15.5164 22.5329 15.5302C22.5086 15.5578 22.4743 15.5958 22.4301 15.6427C22.3419 15.7365 22.2141 15.8663 22.0478 16.0199C21.7154 16.3266 21.2264 16.7309 20.588 17.1341C19.3103 17.9411 17.4232 18.75 15 18.75C12.5768 18.75 10.6897 17.9411 9.41201 17.1341C8.77357 16.7309 8.28457 16.3266 7.95223 16.0199C7.78585 15.8663 7.6581 15.7365 7.56987 15.6427C7.52574 15.5958 7.49143 15.5578 7.46707 15.5302C7.45489 15.5164 7.44518 15.5052 7.43798 15.4968L7.42903 15.4863L7.42596 15.4827L7.42428 15.4807Z" fill="black"/>
<path fill-rule="evenodd" clip-rule="evenodd" d="M14.25 22V18H15.75V22H14.25Z" fill="black"/>
<path fill-rule="evenodd" clip-rule="evenodd" d="M9.29681 20.4895L10.6879 16.7392L12.0942 17.2608L10.7032 21.0112L9.29681 20.4895Z" fill="black"/>
<path fill-rule="evenodd" clip-rule="evenodd" d="M21.0621 20.5086L19.7056 16.7457L18.2944 17.2544L19.651 21.0173L21.0621 20.5086Z" fill="black"/>
</svg>
