<svg viewBox="0 0 30 30" fill="none" xmlns="http://www.w3.org/2000/svg">
<path fill-rule="evenodd" clip-rule="evenodd" d="M8.85832 15C8.92045 15.105 8.99769 15.2309 9.08977 15.3725C9.37638 15.8135 9.80179 16.3998 10.3563 16.9834C11.4766 18.1628 13.0432 19.25 15 19.25C16.9568 19.25 18.5234 18.1628 19.6438 16.9834C20.1982 16.3998 20.6236 15.8134 20.9102 15.3725C21.0023 15.2309 21.0796 15.105 21.1417 15C21.0796 14.895 21.0023 14.7691 20.9102 14.6275C20.6236 14.1866 20.1982 13.6002 19.6438 13.0166C18.5234 11.8372 16.9568 10.75 15 10.75C13.0432 10.75 11.4766 11.8372 10.3563 13.0166C9.80179 13.6002 9.37638 14.1865 9.08977 14.6275C8.99769 14.7691 8.92045 14.895 8.85832 15ZM22 15C22.6708 15.3354 22.6707 15.3357 22.6706 15.3359L22.6694 15.3382L22.6671 15.3429L22.6596 15.3575C22.6534 15.3696 22.6447 15.3863 22.6335 15.4074C22.6112 15.4495 22.579 15.509 22.537 15.5834C22.453 15.7322 22.3297 15.941 22.1679 16.19C21.8451 16.6866 21.3643 17.3502 20.7313 18.0166C19.4766 19.3372 17.5432 20.75 15 20.75C12.4568 20.75 10.5234 19.3372 9.26875 18.0166C8.63571 17.3502 8.15487 16.6865 7.83211 16.19C7.67027 15.941 7.54695 15.7322 7.46303 15.5834C7.42104 15.509 7.38882 15.4495 7.3665 15.4074C7.35533 15.3863 7.34663 15.3696 7.34041 15.3575L7.33293 15.3429L7.33059 15.3382L7.32977 15.3366C7.32963 15.3363 7.32918 15.3354 8 15C7.32918 14.6646 7.32931 14.6643 7.32945 14.6641L7.33059 14.6618L7.33293 14.6571L7.34041 14.6425C7.34663 14.6304 7.35533 14.6137 7.3665 14.5926C7.38882 14.5505 7.42104 14.491 7.46303 14.4166C7.54695 14.2678 7.67027 14.059 7.83211 13.81C8.15487 13.3135 8.63571 12.6498 9.26875 11.9834C10.5234 10.6628 12.4568 9.25 15 9.25C17.5432 9.25 19.4766 10.6628 20.7313 11.9834C21.3643 12.6498 21.8451 13.3135 22.1679 13.81C22.3297 14.059 22.453 14.2678 22.537 14.4166C22.579 14.491 22.6112 14.5505 22.6335 14.5926C22.6447 14.6137 22.6534 14.6304 22.6596 14.6425L22.6671 14.6571L22.6694 14.6618L22.6702 14.6634C22.6704 14.6637 22.6708 14.6646 22 15ZM22 15L22.6706 15.3359L22.8385 15L22.6708 14.6646L22 15ZM8 15L7.32918 15.3354L7.16148 15L7.32945 14.6641L8 15Z" fill="black"/>
<path fill-rule="evenodd" clip-rule="evenodd" d="M15 16.5C15.8284 16.5 16.5 15.8284 16.5 15C16.5 14.1716 15.8284 13.5 15 13.5C14.1716 13.5 13.5 14.1716 13.5 15C13.5 15.8284 14.1716 16.5 15 16.5ZM15 18C16.6569 18 18 16.6569 18 15C18 13.3431 16.6569 12 15 12C13.3431 12 12 13.3431 12 15C12 16.6569 13.3431 18 15 18Z" fill="black"/>
</svg>
