<svg viewBox="0 0 24 24" xmlns="http://www.w3.org/2000/svg"><path class="st1" d="M19.1,12.9c0-0.3,0.1-0.6,0.1-0.9c0-0.3,0-0.6-0.1-0.9l2-1.6c0.2-0.1,0.2-0.4,0.1-0.6l-1.9-3.3   c-0.1-0.2-0.4-0.3-0.6-0.2l-2.4,1c-0.5-0.4-1-0.7-1.6-0.9l-0.4-2.5c0-0.2-0.2-0.4-0.5-0.4h-3.8c-0.2,0-0.4,0.2-0.5,0.4L9.2,5.3   C8.7,5.6,8.1,5.9,7.6,6.3l-2.4-1C5,5.2,4.8,5.3,4.6,5.5L2.7,8.9C2.6,9.1,2.7,9.3,2.9,9.5l2,1.6c0,0.3-0.1,0.6-0.1,0.9   s0,0.6,0.1,0.9l-2,1.6c-0.2,0.1-0.2,0.4-0.1,0.6l1.9,3.3c0.1,0.2,0.4,0.3,0.6,0.2l2.4-1c0.5,0.4,1,0.7,1.6,0.9l0.4,2.5   c0.1,0.2,0.2,0.4,0.5,0.4h3.8c0.2,0,0.4-0.2,0.5-0.4l0.4-2.5c0.6-0.2,1.1-0.6,1.6-0.9l2.4,1c0.2,0.1,0.5,0,0.6-0.2l1.9-3.3   c0.1-0.2,0.1-0.5-0.1-0.6L19.1,12.9z M12,15.6c-2,0-3.6-1.6-3.6-3.6S10,8.4,12,8.4s3.6,1.6,3.6,3.6S14,15.6,12,15.6z"/></svg>