<svg viewBox="0 0 30 30" fill="none" xmlns="http://www.w3.org/2000/svg">
<path d="M13.5 23.2554C13.5 24.1543 12.7713 24.8831 11.8723 24.8831C10.9734 24.8831 10.2446 24.1543 10.2446 23.2554C10.2446 22.3564 10.9734 21.6277 11.8723 21.6277C12.7713 21.6277 13.5 22.3564 13.5 23.2554Z" fill="black"/>
<path d="M13.5 15C13.5 15.8989 12.7713 16.6277 11.8723 16.6277C10.9734 16.6277 10.2446 15.8989 10.2446 15C10.2446 14.1011 10.9734 13.3723 11.8723 13.3723C12.7713 13.3723 13.5 14.1011 13.5 15Z" fill="black"/>
<path d="M13.5 6.74463C13.5 7.64357 12.7713 8.37231 11.8723 8.37231C10.9734 8.37231 10.2446 7.64357 10.2446 6.74463C10.2446 5.84568 10.9734 5.11694 11.8723 5.11694C12.7713 5.11694 13.5 5.84568 13.5 6.74463Z" fill="black"/>
<path d="M19.7554 23.2554C19.7554 24.1543 19.0266 24.8831 18.1277 24.8831C17.2287 24.8831 16.5 24.1543 16.5 23.2554C16.5 22.3564 17.2287 21.6277 18.1277 21.6277C19.0266 21.6277 19.7554 22.3564 19.7554 23.2554Z" fill="black"/>
<path d="M19.7554 15C19.7554 15.8989 19.0266 16.6277 18.1277 16.6277C17.2287 16.6277 16.5 15.8989 16.5 15C16.5 14.1011 17.2287 13.3723 18.1277 13.3723C19.0266 13.3723 19.7554 14.1011 19.7554 15Z" fill="black"/>
<path d="M19.7554 6.74463C19.7554 7.64357 19.0266 8.37231 18.1277 8.37231C17.2287 8.37231 16.5 7.64357 16.5 6.74463C16.5 5.84568 17.2287 5.11694 18.1277 5.11694C19.0266 5.11694 19.7554 5.84568 19.7554 6.74463Z" fill="black"/>
</svg>
