<svg viewBox="0 0 30 30" fill="none" xmlns="http://www.w3.org/2000/svg">
<path d="M15.0072 23.8C11.1822 23.8 8.78223 22.1 7.90723 18.875L10.9572 18.075C11.6072 20.275 13.0322 21.35 15.2322 21.35C17.2822 21.35 18.4822 20.375 18.4822 18.825C18.4822 17.675 17.8072 16.975 16.0572 16.4L12.5572 15.25C10.0322 14.425 8.83223 12.975 8.83223 10.775C8.83223 7.72499 11.2072 5.84999 14.9072 5.84999C18.2322 5.84999 20.4822 7.47499 21.2572 10.4L18.4072 11.125C17.8822 9.14999 16.6572 8.12499 14.7072 8.12499C12.9322 8.12499 11.8322 8.97499 11.8322 10.35C11.8322 11.475 12.5572 12.15 14.1322 12.65L17.4822 13.725C20.3822 14.65 21.6322 16.075 21.6322 18.45C21.6322 21.825 19.1572 23.8 15.0072 23.8Z" fill="black"/>
</svg>
