<svg viewBox="0 0 24 24" fill="none" xmlns="http://www.w3.org/2000/svg">
<path d="M11.2138 14.779C11.2138 13.3003 11.5813 12.4334 12.6592 11.3371L13.7372 10.2153C14.6192 9.32295 14.9376 8.66006 14.9376 7.7932C14.9376 6.36544 14.0557 5.52408 12.6347 5.52408C10.8218 5.52408 9.81737 6.84986 9.81737 9.29745L7 8.81303C7.17149 5.11615 9.3029 3 12.8062 3C16.0401 3 18 4.75921 18 7.64023C18 9.24646 17.3875 10.5467 16.0156 11.8215L14.7416 12.9943C13.9822 13.6827 13.7617 14.1416 13.7617 14.983V15.5439H11.2138V14.779ZM10.8708 21V17.5326H14.1537V21H10.8708Z" fill="black"/>
</svg>
