<svg viewBox="0 0 30 30" fill="none" xmlns="http://www.w3.org/2000/svg">
<path fill-rule="evenodd" clip-rule="evenodd" d="M13.2802 16.7198C14.979 18.4186 17.7332 18.4186 19.432 16.7198C21.1308 15.021 21.1308 12.2668 19.432 10.568C17.7332 8.86922 14.979 8.86922 13.2802 10.568C12.426 11.4222 12.0015 12.5402 12.0061 13.6618C12.0107 14.7714 12.435 15.8747 13.2802 16.7198ZM12.2195 17.7805C14.5041 20.0651 18.2081 20.0651 20.4927 17.7805C22.7772 15.4959 22.7772 11.7919 20.4927 9.50734C18.2081 7.22277 14.5041 7.22277 12.2195 9.50734C11.0711 10.6557 10.5 12.1628 10.5061 13.668C10.5122 15.1571 11.0833 16.6443 12.2195 17.7805Z" fill="black"/>
<path fill-rule="evenodd" clip-rule="evenodd" d="M7.26358 21.6758L12.2133 16.726L13.274 17.7867L8.32424 22.7364L7.26358 21.6758Z" fill="black"/>
</svg>
