<svg id="Layer_1" data-name="Layer 1" xmlns="http://www.w3.org/2000/svg" xmlns:xlink="http://www.w3.org/1999/xlink" viewBox="0 0 40 40"><defs><clipPath id="clip-path"><path d="M40,0V40H0V0Z" fill="none"/></clipPath></defs><g clip-path="url(#clip-path)"><path d="M25.58,22.31a6,6,0,1,1-3.27-7.89,6.06,6.06,0,0,1,3.27,7.89m5-7.75a.2.2,0,0,0-.26-.1l-3.13,1.29-.29-.43a8.27,8.27,0,0,0-2.24-2.25l-.43-.29,1.29-3.12a.21.21,0,0,0-.1-.26,12.11,12.11,0,0,0-1.79-.75.22.22,0,0,0-.26.12L22.1,11.89l-.51-.1a8.3,8.3,0,0,0-3.18,0l-.51.1L16.61,8.77a.22.22,0,0,0-.26-.12,12.11,12.11,0,0,0-1.79.75.2.2,0,0,0-.1.26l1.29,3.13-.43.29a8.27,8.27,0,0,0-2.25,2.24l-.29.43L9.66,14.46a.2.2,0,0,0-.26.1,12.11,12.11,0,0,0-.75,1.79.22.22,0,0,0,.12.26l3.12,1.29-.1.51a8.3,8.3,0,0,0,0,3.18l.1.51L8.77,23.39a.22.22,0,0,0-.12.26,12.11,12.11,0,0,0,.75,1.79.21.21,0,0,0,.26.1l3.13-1.29.29.43a8.41,8.41,0,0,0,2.24,2.25l.43.29-1.29,3.12a.21.21,0,0,0,.1.26,12.11,12.11,0,0,0,1.79.75.22.22,0,0,0,.26-.12l1.29-3.12.51.1a8.3,8.3,0,0,0,3.18,0l.51-.1,1.3,3.13a.21.21,0,0,0,.25.12,12.11,12.11,0,0,0,1.79-.75.2.2,0,0,0,.1-.26l-1.29-3.13.43-.29a8.13,8.13,0,0,0,2.25-2.24l.29-.43,3.12,1.29a.2.2,0,0,0,.26-.1,12.11,12.11,0,0,0,.75-1.79.22.22,0,0,0-.12-.26L28.11,22.1l.1-.51a8.3,8.3,0,0,0,0-3.18l-.1-.51,3.13-1.29a.22.22,0,0,0,.12-.26,12.11,12.11,0,0,0-.75-1.79"/></g></svg>