<svg id="Layer_1" data-name="Layer 1" xmlns="http://www.w3.org/2000/svg" xmlns:xlink="http://www.w3.org/1999/xlink" viewBox="0 0 40 40"><defs><clipPath id="clip-path"><path d="M40,0V40H0V0Z" fill="none"/></clipPath></defs><g clip-path="url(#clip-path)"><path d="M15.17,20.94a.22.22,0,0,0,0,.34l1.18,1.27c.1.1.22.12.31,0l2.28-2.09v8.29a.21.21,0,0,0,.23.23h1.7a.21.21,0,0,0,.23-.23V20.48l2.28,2.09a.2.2,0,0,0,.31,0l1.18-1.27a.22.22,0,0,0,0-.34l-4.66-4a.27.27,0,0,0-.34,0ZM11,11.23v1.7a.21.21,0,0,0,.23.23H28.77a.21.21,0,0,0,.23-.23v-1.7a.21.21,0,0,0-.23-.23H11.23a.21.21,0,0,0-.23.23"/></g></svg>